<mxfile host="app.diagrams.net" modified="2022-10-15T08:23:02.519Z" agent="5.0 (Macintosh; Intel Mac OS X 10_15_7) AppleWebKit/537.36 (KHTML, like Gecko) Chrome/101.0.4951.54 Safari/537.36" etag="M9y-fM2riT8O5lw5yLlo" version="20.4.1" type="github">
  <diagram id="QyuGl38O4eNHdpb4xN2y" name="第 1 页">
    <mxGraphModel dx="1426" dy="793" grid="1" gridSize="10" guides="1" tooltips="1" connect="1" arrows="1" fold="1" page="1" pageScale="1" pageWidth="827" pageHeight="1169" math="0" shadow="0">
      <root>
        <mxCell id="0" />
        <mxCell id="1" parent="0" />
        <mxCell id="dEcgox041AQE_WnqT-mv-14" style="edgeStyle=orthogonalEdgeStyle;rounded=0;orthogonalLoop=1;jettySize=auto;html=1;exitX=1;exitY=0.5;exitDx=0;exitDy=0;entryX=0;entryY=0.5;entryDx=0;entryDy=0;" edge="1" parent="1" source="dEcgox041AQE_WnqT-mv-10" target="dEcgox041AQE_WnqT-mv-13">
          <mxGeometry relative="1" as="geometry" />
        </mxCell>
        <mxCell id="dEcgox041AQE_WnqT-mv-10" value="" style="rounded=0;whiteSpace=wrap;html=1;" vertex="1" parent="1">
          <mxGeometry x="50" y="170" width="560" height="350" as="geometry" />
        </mxCell>
        <mxCell id="dEcgox041AQE_WnqT-mv-5" style="edgeStyle=orthogonalEdgeStyle;rounded=0;orthogonalLoop=1;jettySize=auto;html=1;exitX=1;exitY=0.5;exitDx=0;exitDy=0;entryX=0;entryY=0.5;entryDx=0;entryDy=0;" edge="1" parent="1" source="dEcgox041AQE_WnqT-mv-1" target="dEcgox041AQE_WnqT-mv-2">
          <mxGeometry relative="1" as="geometry" />
        </mxCell>
        <mxCell id="dEcgox041AQE_WnqT-mv-6" style="edgeStyle=orthogonalEdgeStyle;rounded=0;orthogonalLoop=1;jettySize=auto;html=1;exitX=1;exitY=0.5;exitDx=0;exitDy=0;entryX=0;entryY=0.5;entryDx=0;entryDy=0;" edge="1" parent="1" source="dEcgox041AQE_WnqT-mv-1" target="dEcgox041AQE_WnqT-mv-3">
          <mxGeometry relative="1" as="geometry" />
        </mxCell>
        <mxCell id="dEcgox041AQE_WnqT-mv-1" value="欲望与动机" style="rounded=0;whiteSpace=wrap;html=1;" vertex="1" parent="1">
          <mxGeometry x="70" y="315" width="120" height="60" as="geometry" />
        </mxCell>
        <mxCell id="dEcgox041AQE_WnqT-mv-7" style="edgeStyle=orthogonalEdgeStyle;rounded=0;orthogonalLoop=1;jettySize=auto;html=1;exitX=1;exitY=0.5;exitDx=0;exitDy=0;entryX=0;entryY=0.5;entryDx=0;entryDy=0;" edge="1" parent="1" source="dEcgox041AQE_WnqT-mv-2" target="dEcgox041AQE_WnqT-mv-4">
          <mxGeometry relative="1" as="geometry" />
        </mxCell>
        <mxCell id="dEcgox041AQE_WnqT-mv-2" value="情绪意志(心)" style="rounded=0;whiteSpace=wrap;html=1;" vertex="1" parent="1">
          <mxGeometry x="270" y="235" width="120" height="60" as="geometry" />
        </mxCell>
        <mxCell id="dEcgox041AQE_WnqT-mv-9" style="edgeStyle=orthogonalEdgeStyle;rounded=0;orthogonalLoop=1;jettySize=auto;html=1;exitX=1;exitY=0.5;exitDx=0;exitDy=0;entryX=0;entryY=0.5;entryDx=0;entryDy=0;" edge="1" parent="1" source="dEcgox041AQE_WnqT-mv-3" target="dEcgox041AQE_WnqT-mv-4">
          <mxGeometry relative="1" as="geometry" />
        </mxCell>
        <mxCell id="dEcgox041AQE_WnqT-mv-3" value="认知能力(智)" style="rounded=0;whiteSpace=wrap;html=1;" vertex="1" parent="1">
          <mxGeometry x="270" y="395" width="120" height="60" as="geometry" />
        </mxCell>
        <mxCell id="dEcgox041AQE_WnqT-mv-4" value="行动能力" style="rounded=0;whiteSpace=wrap;html=1;" vertex="1" parent="1">
          <mxGeometry x="464" y="315" width="120" height="60" as="geometry" />
        </mxCell>
        <mxCell id="dEcgox041AQE_WnqT-mv-11" value="内部世界" style="text;html=1;strokeColor=none;fillColor=none;align=center;verticalAlign=middle;whiteSpace=wrap;rounded=0;" vertex="1" parent="1">
          <mxGeometry x="70" y="185" width="60" height="30" as="geometry" />
        </mxCell>
        <mxCell id="dEcgox041AQE_WnqT-mv-13" value="外部世界" style="ellipse;whiteSpace=wrap;html=1;" vertex="1" parent="1">
          <mxGeometry x="670" y="305" width="120" height="80" as="geometry" />
        </mxCell>
        <mxCell id="dEcgox041AQE_WnqT-mv-16" value="感知能力" style="rounded=0;whiteSpace=wrap;html=1;" vertex="1" parent="1">
          <mxGeometry x="270" y="490" width="120" height="60" as="geometry" />
        </mxCell>
      </root>
    </mxGraphModel>
  </diagram>
</mxfile>
